<svg id="Layer_1" data-name="Layer 1" xmlns="http://www.w3.org/2000/svg" viewBox="0 0 144.37 86.24"><title>CK 2</title><path d="M846.14,371.24a39.92,39.92,0,0,1-15.63-14.83,43.22,43.22,0,0,1,0-42.87,39.78,39.78,0,0,1,15.63-14.83,46.5,46.5,0,0,1,22.36-5.35A47,47,0,0,1,887.41,297a37.83,37.83,0,0,1,14.19,10.58l-12,11a25.72,25.72,0,0,0-20.23-9.42,26.93,26.93,0,0,0-13.34,3.27,23.33,23.33,0,0,0-9.13,9.14,28.75,28.75,0,0,0,0,26.67,23.3,23.3,0,0,0,9.13,9.13,26.83,26.83,0,0,0,13.34,3.28q12.06,0,20.23-9.54L921,341c-3.83,4.68-28,29.45-33.65,31.9a47.2,47.2,0,0,1-19,3.68A46.25,46.25,0,0,1,846.14,371.24Z" transform="translate(-824.82 -290.34)"/><path d="M921.17,340.9,888,353,944.33,291l20.52-.61-32,37.11,36.32,43.9-21.54.64Z" transform="translate(-824.82 -290.34)"/></svg>